<svg xmlns="http://www.w3.org/2000/svg" version="1.1" xmlns:xlink="http://www.w3.org/1999/xlink" xmlns:svgjs="http://svgjs.dev/svgjs" width="2000" height="2627" viewBox="0 0 2000 2627"><g transform="matrix(1,0,0,1,-1.1917811550151782,1.0635627530364218)"><svg viewBox="0 0 188 247" data-background-color="#fafafa" preserveAspectRatio="xMidYMid meet" height="2627" width="2000" xmlns="http://www.w3.org/2000/svg" xmlns:xlink="http://www.w3.org/1999/xlink"><g id="tight-bounds" transform="matrix(1,0,0,1,0.11202742857142312,-0.09999999999999432)"><svg viewBox="0 0 187.77594514285715 247.2" height="247.2" width="187.77594514285715"><rect width="187.77594514285715" height="247.2" fill="url(#30e98d76-21c8-4859-b44b-4fe10c979800)" mask="url(#f857c500-2955-4e70-814a-d2e25b4a8448)" data-fill-palette-color="tertiary"></rect><g><svg viewBox="0 0 187.77594514285715 247.2" height="247.2" width="187.77594514285715"><g><svg viewBox="0 0 187.77594514285715 247.2" height="247.2" width="187.77594514285715"><g id="textblocktransform"><svg viewBox="0 0 187.77594514285715 247.2" height="247.2" width="187.77594514285715" id="textblock"><g><svg viewBox="0 0 187.77594514285715 247.2" height="247.2" width="187.77594514285715"><rect width="187.77594514285715" height="247.2" x="0" y="0" opacity="1" fill="url(#30e98d76-21c8-4859-b44b-4fe10c979800)" data-fill-palette-color="tertiary"></rect><g transform="matrix(1,0,0,1,23.607599999999998,23.607599999999998)"><svg width="140.56074514285717" viewBox="3.9 -35 24.6 35" height="199.9848" data-palette-color="#f4f4f4"><path d="M24.85 0L7.5-28 7.5 0 3.9 0 3.9-35 7.5-35 24.85-7.05 24.85-35 28.5-35 28.5 0 24.85 0Z" opacity="1" transform="matrix(1,0,0,1,0,0)" fill="#f4f4f4" class="wordmark-text-0" data-fill-palette-color="quaternary" id="text-0"></path></svg></g></svg></g></svg></g></svg></g></svg></g><defs></defs><mask id="f857c500-2955-4e70-814a-d2e25b4a8448"><g id="SvgjsG3043"><svg viewBox="0 0 187.77594514285715 247.2" height="247.2" width="187.77594514285715"><g><svg viewBox="0 0 187.77594514285715 247.2" height="247.2" width="187.77594514285715"><g><svg viewBox="0 0 187.77594514285715 247.2" height="247.2" width="187.77594514285715"><g id="SvgjsG3042"><svg viewBox="0 0 187.77594514285715 247.2" height="247.2" width="187.77594514285715" id="SvgjsSvg3041"><g><svg viewBox="0 0 187.77594514285715 247.2" height="247.2" width="187.77594514285715"><rect width="187.77594514285715" height="247.2" x="0" y="0" opacity="1" fill="white"></rect><g transform="matrix(1,0,0,1,23.607599999999998,23.607599999999998)"><svg width="140.56074514285717" viewBox="3.9 -35 24.6 35" height="199.9848" data-palette-color="#f4f4f4"><path d="M24.85 0L7.5-28 7.5 0 3.9 0 3.9-35 7.5-35 24.85-7.05 24.85-35 28.5-35 28.5 0 24.85 0Z" opacity="1" transform="matrix(1,0,0,1,0,0)" fill="black" class="wordmark-text-0" id="SvgjsPath3040"></path></svg></g></svg></g></svg></g></svg></g></svg></g><defs><mask></mask></defs></svg><rect width="187.77594514285715" height="247.2" fill="black" stroke="none" visibility="hidden"></rect></g></mask><linearGradient x1="0" x2="1" y1="0.5" y2="0.5" id="30e98d76-21c8-4859-b44b-4fe10c979800"><stop stop-color="#f00b51" offset="0"></stop><stop stop-color="#730062" offset="1"></stop></linearGradient></svg><rect width="187.77594514285715" height="247.2" fill="none" stroke="none" visibility="hidden"></rect></g></svg></g></svg>